<svg width="64" height="53" viewBox="0 0 64 53" fill="none" xmlns="http://www.w3.org/2000/svg">
<path d="M63.9999 6.76168C61.6411 7.79636 59.1278 8.48218 56.5074 8.81518C59.2031 7.20568 61.2605 4.67647 62.2278 1.62793C59.7145 3.12643 56.9395 4.18489 53.9821 4.77557C51.5956 2.23447 48.1943 0.660645 44.4837 0.660645C37.2845 0.660645 31.4888 6.504 31.4888 13.6675C31.4888 14.6982 31.576 15.6893 31.79 16.6328C20.9794 16.1055 11.4136 10.9242 4.9875 3.03129C3.86561 4.97775 3.20754 7.20568 3.20754 9.60407C3.20754 14.1075 5.52665 18.0995 8.9835 20.4107C6.89432 20.3711 4.84479 19.7645 3.10843 18.8091C3.10843 18.8488 3.10843 18.9003 3.10843 18.9519C3.10843 25.2709 7.61582 30.5196 13.5266 31.7288C12.4681 32.0181 11.3145 32.1569 10.1173 32.1569C9.28479 32.1569 8.44436 32.1093 7.65547 31.9349C9.34029 37.0845 14.1212 40.8704 19.806 40.9933C15.3819 44.4541 9.76447 46.5393 3.68325 46.5393C2.61686 46.5393 1.59407 46.4917 0.571289 46.3609C6.3314 50.0755 13.1579 52.1964 20.5196 52.1964C44.448 52.1964 57.5301 32.3749 57.5301 15.1937C57.5301 14.6189 57.5103 14.0639 57.4826 13.5129C60.0633 11.6814 62.2318 9.39397 63.9999 6.76168Z" fill="white"/>
</svg>
